<svg xmlns="http://www.w3.org/2000/svg" xmlns:xlink="http://www.w3.org/1999/xlink" viewBox="0 0 1135 2180">
  <defs>
    <style>
      .cls-1 {
        fill: #fbfbfb;
      }

      .cls-2 {
        fill: #96e3ff;
      }

      .cls-12, .cls-13, .cls-14, .cls-16, .cls-3, .cls-5, .cls-6, .cls-8 {
        fill: #fff;
      }

      .cls-12, .cls-3 {
        font-size: 62px;
      }

      .cls-12, .cls-13, .cls-14, .cls-16, .cls-3, .cls-5, .cls-8 {
        font-family: HelveticaNeue, Helvetica Neue;
      }

      .cls-16, .cls-3, .cls-5 {
        letter-spacing: 0.035em;
      }

      .cls-10, .cls-19, .cls-4 {
        fill: none;
      }

      .cls-4 {
        stroke: #fff;
        stroke-width: 2px;
      }

      .cls-13, .cls-5 {
        font-size: 34px;
      }

      .cls-7 {
        fill: #88a3ff;
      }

      .cls-8 {
        font-size: 32px;
      }

      .cls-12, .cls-13, .cls-14, .cls-8, .cls-9 {
        letter-spacing: 0.02em;
      }

      .cls-9 {
        fill: rgba(112,112,112,0.6);
        font-size: 99px;
        font-family: HelveticaNeue-Medium, Helvetica Neue;
        font-weight: 500;
      }

      .cls-10 {
        stroke: rgba(112,112,112,0.27);
      }

      .cls-11 {
        fill: #747474;
      }

      .cls-14 {
        font-size: 61px;
      }

      .cls-15 {
        fill: #ff7993;
      }

      .cls-16 {
        font-size: 100px;
      }

      .cls-17, .cls-18 {
        stroke: none;
      }

      .cls-18 {
        fill: rgba(112,112,112,0.15);
      }

      .cls-20 {
        filter: url(#Path_6);
      }

      .cls-21 {
        filter: url(#Title-3);
      }

      .cls-22 {
        filter: url(#Completed_Count-3);
      }

      .cls-23 {
        filter: url(#Check-Box-3);
      }

      .cls-24 {
        filter: url(#Path_5-3);
      }

      .cls-25 {
        filter: url(#Title-2);
      }

      .cls-26 {
        filter: url(#Share_Count-2);
      }

      .cls-27 {
        filter: url(#Head_1-2);
      }

      .cls-28 {
        filter: url(#Body_1-2);
      }

      .cls-29 {
        filter: url(#Head_2-2);
      }

      .cls-30 {
        filter: url(#Body_3-2);
      }

      .cls-31 {
        filter: url(#Completed_Count-2);
      }

      .cls-32 {
        filter: url(#Check-Box-2);
      }

      .cls-33 {
        filter: url(#Path_5-2);
      }

      .cls-34 {
        filter: url(#_6_6_Completed);
      }

      .cls-35 {
        filter: url(#Rectangle_4-2);
      }

      .cls-36 {
        filter: url(#Assignments);
      }

      .cls-37 {
        filter: url(#Path_4-2);
      }

      .cls-38 {
        filter: url(#Title);
      }

      .cls-39 {
        filter: url(#Incomp_Marker-2);
      }

      .cls-40 {
        filter: url(#Share_Count);
      }

      .cls-41 {
        filter: url(#Head_1);
      }

      .cls-42 {
        filter: url(#Body_1);
      }

      .cls-43 {
        filter: url(#Head_2);
      }

      .cls-44 {
        filter: url(#Body_3);
      }

      .cls-45 {
        filter: url(#Completed_Count);
      }

      .cls-46 {
        filter: url(#Check-Box);
      }

      .cls-47 {
        filter: url(#Path_5);
      }

      .cls-48 {
        filter: url(#Incomp_Marker);
      }

      .cls-49 {
        filter: url(#_2_6_Completed);
      }

      .cls-50 {
        filter: url(#Rectangle_4);
      }

      .cls-51 {
        filter: url(#Work_Tasks);
      }

      .cls-52 {
        filter: url(#Path_4);
      }

      .cls-53 {
        filter: url(#BottomApp_Layer);
      }
    </style>
    <filter id="BottomApp_Layer" x="0" y="0" width="1135" height="2180" filterUnits="userSpaceOnUse">
      <feOffset dy="3" input="SourceAlpha"/>
      <feGaussianBlur stdDeviation="15" result="blur"/>
      <feFlood flood-opacity="0.078"/>
      <feComposite operator="in" in2="blur"/>
      <feComposite in="SourceGraphic"/>
    </filter>
    <filter id="Path_4" x="115.703" y="327.574" width="910.847" height="235.124" filterUnits="userSpaceOnUse">
      <feOffset dy="3" input="SourceAlpha"/>
      <feGaussianBlur stdDeviation="3" result="blur-2"/>
      <feFlood flood-color="#96e3ff" flood-opacity="0.412"/>
      <feComposite operator="in" in2="blur-2"/>
      <feComposite in="SourceGraphic"/>
    </filter>
    <filter id="Work_Tasks" x="175.955" y="362.563" width="354" height="90" filterUnits="userSpaceOnUse">
      <feOffset dy="3" input="SourceAlpha"/>
      <feGaussianBlur stdDeviation="3" result="blur-3"/>
      <feFlood flood-opacity="0.059"/>
      <feComposite operator="in" in2="blur-3"/>
      <feComposite in="SourceGraphic"/>
    </filter>
    <filter id="Rectangle_4" x="175.955" y="458.199" width="59.987" height="59.987" filterUnits="userSpaceOnUse">
      <feOffset dy="3" input="SourceAlpha"/>
      <feGaussianBlur stdDeviation="3" result="blur-4"/>
      <feFlood flood-opacity="0.059"/>
      <feComposite operator="in" in2="blur-4"/>
      <feComposite in="SourceGraphic"/>
    </filter>
    <filter id="_2_6_Completed" x="238.935" y="458.199" width="260" height="57" filterUnits="userSpaceOnUse">
      <feOffset dy="3" input="SourceAlpha"/>
      <feGaussianBlur stdDeviation="3" result="blur-5"/>
      <feFlood flood-opacity="0.059"/>
      <feComposite operator="in" in2="blur-5"/>
      <feComposite in="SourceGraphic"/>
    </filter>
    <filter id="Incomp_Marker" x="192.283" y="476.859" width="27.33" height="22.665" filterUnits="userSpaceOnUse">
      <feOffset dy="3" input="SourceAlpha"/>
      <feGaussianBlur stdDeviation="3" result="blur-6"/>
      <feFlood flood-opacity="0.059"/>
      <feComposite operator="in" in2="blur-6"/>
      <feComposite in="SourceGraphic"/>
    </filter>
    <filter id="Path_5" x="115.703" y="591.156" width="910.847" height="235.124" filterUnits="userSpaceOnUse">
      <feOffset dy="3" input="SourceAlpha"/>
      <feGaussianBlur stdDeviation="3" result="blur-7"/>
      <feFlood flood-color="#6f86d1" flood-opacity="0.412"/>
      <feComposite operator="in" in2="blur-7"/>
      <feComposite in="SourceGraphic"/>
    </filter>
    <filter id="Check-Box" x="175.955" y="719.449" width="59.987" height="59.987" filterUnits="userSpaceOnUse">
      <feOffset dy="3" input="SourceAlpha"/>
      <feGaussianBlur stdDeviation="3" result="blur-8"/>
      <feFlood flood-opacity="0.059"/>
      <feComposite operator="in" in2="blur-8"/>
      <feComposite in="SourceGraphic"/>
    </filter>
    <filter id="Completed_Count" x="238.935" y="719.449" width="260" height="57" filterUnits="userSpaceOnUse">
      <feOffset dy="3" input="SourceAlpha"/>
      <feGaussianBlur stdDeviation="3" result="blur-9"/>
      <feFlood flood-opacity="0.059"/>
      <feComposite operator="in" in2="blur-9"/>
      <feComposite in="SourceGraphic"/>
    </filter>
    <filter id="Body_3" x="864.069" y="734.041" width="48.227" height="41.973" filterUnits="userSpaceOnUse">
      <feOffset dy="3" input="SourceAlpha"/>
      <feGaussianBlur stdDeviation="3" result="blur-10"/>
      <feFlood flood-opacity="0.051"/>
      <feComposite operator="in" in2="blur-10"/>
      <feComposite in="SourceGraphic"/>
    </filter>
    <filter id="Head_2" x="870.323" y="719.449" width="35.719" height="35.719" filterUnits="userSpaceOnUse">
      <feOffset dy="3" input="SourceAlpha"/>
      <feGaussianBlur stdDeviation="3" result="blur-11"/>
      <feFlood flood-opacity="0.078"/>
      <feComposite operator="in" in2="blur-11"/>
      <feComposite in="SourceGraphic"/>
    </filter>
    <filter id="Body_1" x="850.074" y="734.041" width="48.227" height="41.973" filterUnits="userSpaceOnUse">
      <feOffset dy="3" input="SourceAlpha"/>
      <feGaussianBlur stdDeviation="3" result="blur-12"/>
      <feFlood flood-opacity="0.051"/>
      <feComposite operator="in" in2="blur-12"/>
      <feComposite in="SourceGraphic"/>
    </filter>
    <filter id="Head_1" x="856.327" y="719.449" width="35.719" height="35.719" filterUnits="userSpaceOnUse">
      <feOffset dy="3" input="SourceAlpha"/>
      <feGaussianBlur stdDeviation="3" result="blur-13"/>
      <feFlood flood-opacity="0.078"/>
      <feComposite operator="in" in2="blur-13"/>
      <feComposite in="SourceGraphic"/>
    </filter>
    <filter id="Share_Count" x="908.388" y="717.116" width="36" height="55" filterUnits="userSpaceOnUse">
      <feOffset dy="3" input="SourceAlpha"/>
      <feGaussianBlur stdDeviation="3" result="blur-14"/>
      <feFlood flood-opacity="0.078"/>
      <feComposite operator="in" in2="blur-14"/>
      <feComposite in="SourceGraphic"/>
    </filter>
    <filter id="Incomp_Marker-2" x="192.283" y="738.109" width="27.33" height="22.665" filterUnits="userSpaceOnUse">
      <feOffset dy="3" input="SourceAlpha"/>
      <feGaussianBlur stdDeviation="3" result="blur-15"/>
      <feFlood flood-opacity="0.059"/>
      <feComposite operator="in" in2="blur-15"/>
      <feComposite in="SourceGraphic"/>
    </filter>
    <filter id="Title" x="175.955" y="623.813" width="303" height="90" filterUnits="userSpaceOnUse">
      <feOffset dy="3" input="SourceAlpha"/>
      <feGaussianBlur stdDeviation="3" result="blur-16"/>
      <feFlood flood-opacity="0.059"/>
      <feComposite operator="in" in2="blur-16"/>
      <feComposite in="SourceGraphic"/>
    </filter>
    <filter id="Path_4-2" x="115.703" y="1174.304" width="910.847" height="235.124" filterUnits="userSpaceOnUse">
      <feOffset dy="3" input="SourceAlpha"/>
      <feGaussianBlur stdDeviation="3" result="blur-17"/>
      <feFlood flood-color="#747474" flood-opacity="0.412"/>
      <feComposite operator="in" in2="blur-17"/>
      <feComposite in="SourceGraphic"/>
    </filter>
    <filter id="Assignments" x="174.955" y="1209.292" width="389" height="90" filterUnits="userSpaceOnUse">
      <feOffset dy="3" input="SourceAlpha"/>
      <feGaussianBlur stdDeviation="3" result="blur-18"/>
      <feFlood flood-opacity="0.078"/>
      <feComposite operator="in" in2="blur-18"/>
      <feComposite in="SourceGraphic"/>
    </filter>
    <filter id="Rectangle_4-2" x="175.955" y="1304.929" width="59.987" height="59.987" filterUnits="userSpaceOnUse">
      <feOffset dy="3" input="SourceAlpha"/>
      <feGaussianBlur stdDeviation="3" result="blur-19"/>
      <feFlood flood-opacity="0.078"/>
      <feComposite operator="in" in2="blur-19"/>
      <feComposite in="SourceGraphic"/>
    </filter>
    <filter id="_6_6_Completed" x="238.935" y="1304.929" width="253" height="57" filterUnits="userSpaceOnUse">
      <feOffset dy="3" input="SourceAlpha"/>
      <feGaussianBlur stdDeviation="3" result="blur-20"/>
      <feFlood flood-opacity="0.078"/>
      <feComposite operator="in" in2="blur-20"/>
      <feComposite in="SourceGraphic"/>
    </filter>
    <filter id="Path_5-2" x="115.703" y="1437.886" width="910.847" height="235.124" filterUnits="userSpaceOnUse">
      <feOffset dy="3" input="SourceAlpha"/>
      <feGaussianBlur stdDeviation="3" result="blur-21"/>
      <feFlood flood-color="#747474" flood-opacity="0.412"/>
      <feComposite operator="in" in2="blur-21"/>
      <feComposite in="SourceGraphic"/>
    </filter>
    <filter id="Check-Box-2" x="175.955" y="1566.179" width="59.987" height="59.987" filterUnits="userSpaceOnUse">
      <feOffset dy="3" input="SourceAlpha"/>
      <feGaussianBlur stdDeviation="3" result="blur-22"/>
      <feFlood flood-opacity="0.078"/>
      <feComposite operator="in" in2="blur-22"/>
      <feComposite in="SourceGraphic"/>
    </filter>
    <filter id="Completed_Count-2" x="238.935" y="1566.179" width="293" height="57" filterUnits="userSpaceOnUse">
      <feOffset dy="3" input="SourceAlpha"/>
      <feGaussianBlur stdDeviation="3" result="blur-23"/>
      <feFlood flood-opacity="0.078"/>
      <feComposite operator="in" in2="blur-23"/>
      <feComposite in="SourceGraphic"/>
    </filter>
    <filter id="Body_3-2" x="864.069" y="1580.771" width="48.227" height="41.973" filterUnits="userSpaceOnUse">
      <feOffset dy="3" input="SourceAlpha"/>
      <feGaussianBlur stdDeviation="3" result="blur-24"/>
      <feFlood flood-opacity="0.051"/>
      <feComposite operator="in" in2="blur-24"/>
      <feComposite in="SourceGraphic"/>
    </filter>
    <filter id="Head_2-2" x="870.323" y="1566.179" width="35.719" height="35.719" filterUnits="userSpaceOnUse">
      <feOffset dy="3" input="SourceAlpha"/>
      <feGaussianBlur stdDeviation="3" result="blur-25"/>
      <feFlood flood-opacity="0.078"/>
      <feComposite operator="in" in2="blur-25"/>
      <feComposite in="SourceGraphic"/>
    </filter>
    <filter id="Body_1-2" x="850.074" y="1580.771" width="48.227" height="41.973" filterUnits="userSpaceOnUse">
      <feOffset dy="3" input="SourceAlpha"/>
      <feGaussianBlur stdDeviation="3" result="blur-26"/>
      <feFlood flood-opacity="0.051"/>
      <feComposite operator="in" in2="blur-26"/>
      <feComposite in="SourceGraphic"/>
    </filter>
    <filter id="Head_1-2" x="856.327" y="1566.179" width="35.719" height="35.719" filterUnits="userSpaceOnUse">
      <feOffset dy="3" input="SourceAlpha"/>
      <feGaussianBlur stdDeviation="3" result="blur-27"/>
      <feFlood flood-opacity="0.078"/>
      <feComposite operator="in" in2="blur-27"/>
      <feComposite in="SourceGraphic"/>
    </filter>
    <filter id="Share_Count-2" x="908.388" y="1563.846" width="36" height="55" filterUnits="userSpaceOnUse">
      <feOffset dy="3" input="SourceAlpha"/>
      <feGaussianBlur stdDeviation="3" result="blur-28"/>
      <feFlood flood-opacity="0.078"/>
      <feComposite operator="in" in2="blur-28"/>
      <feComposite in="SourceGraphic"/>
    </filter>
    <filter id="Title-2" x="175.955" y="1470.542" width="258" height="90" filterUnits="userSpaceOnUse">
      <feOffset dy="3" input="SourceAlpha"/>
      <feGaussianBlur stdDeviation="3" result="blur-29"/>
      <feFlood flood-opacity="0.078"/>
      <feComposite operator="in" in2="blur-29"/>
      <feComposite in="SourceGraphic"/>
    </filter>
    <filter id="Path_5-3" x="115.703" y="1701.469" width="910.847" height="235.124" filterUnits="userSpaceOnUse">
      <feOffset dy="3" input="SourceAlpha"/>
      <feGaussianBlur stdDeviation="3" result="blur-30"/>
      <feFlood flood-color="#747474" flood-opacity="0.412"/>
      <feComposite operator="in" in2="blur-30"/>
      <feComposite in="SourceGraphic"/>
    </filter>
    <filter id="Check-Box-3" x="175.955" y="1829.761" width="59.987" height="59.987" filterUnits="userSpaceOnUse">
      <feOffset dy="3" input="SourceAlpha"/>
      <feGaussianBlur stdDeviation="3" result="blur-31"/>
      <feFlood flood-opacity="0.078"/>
      <feComposite operator="in" in2="blur-31"/>
      <feComposite in="SourceGraphic"/>
    </filter>
    <filter id="Completed_Count-3" x="238.935" y="1829.761" width="253" height="57" filterUnits="userSpaceOnUse">
      <feOffset dy="3" input="SourceAlpha"/>
      <feGaussianBlur stdDeviation="3" result="blur-32"/>
      <feFlood flood-opacity="0.078"/>
      <feComposite operator="in" in2="blur-32"/>
      <feComposite in="SourceGraphic"/>
    </filter>
    <filter id="Title-3" x="175.955" y="1734.125" width="286" height="89" filterUnits="userSpaceOnUse">
      <feOffset dy="3" input="SourceAlpha"/>
      <feGaussianBlur stdDeviation="3" result="blur-33"/>
      <feFlood flood-opacity="0.078"/>
      <feComposite operator="in" in2="blur-33"/>
      <feComposite in="SourceGraphic"/>
    </filter>
    <filter id="Path_6" x="444.699" y="1846.585" width="245.603" height="245.603" filterUnits="userSpaceOnUse">
      <feOffset dy="3" input="SourceAlpha"/>
      <feGaussianBlur stdDeviation="7.5" result="blur-34"/>
      <feFlood flood-color="#ff7993" flood-opacity="0.604"/>
      <feComposite operator="in" in2="blur-34"/>
      <feComposite in="SourceGraphic"/>
    </filter>
  </defs>
  <g id="ToDo_App_" data-name="ToDo App " transform="translate(-847 -175)">
    <g class="cls-53" transform="matrix(1, 0, 0, 1, 847, 175)">
      <g id="BottomApp_Layer-2" data-name="BottomApp Layer" class="cls-1" transform="translate(45 42)">
        <path class="cls-17" d="M69.978,0H975.022A69.978,69.978,0,0,1,1045,69.978V2020.022A69.978,69.978,0,0,1,975.022,2090H69.978A69.978,69.978,0,0,1,0,2020.022V69.978A69.978,69.978,0,0,1,69.978,0Z"/>
        <path class="cls-18" d="M 69.9776611328125 0.25 C 60.564208984375 0.25 51.4326171875 2.093505859375 42.83660888671875 5.7294921875 C 38.70501708984375 7.476806640625 34.719970703125 9.639892578125 30.99237060546875 12.158203125 C 27.30029296875 14.652587890625 23.82818603515625 17.517333984375 20.672607421875 20.672607421875 C 17.517333984375 23.828125 14.652587890625 27.30029296875 12.158203125 30.992431640625 C 9.6400146484375 34.719970703125 7.476806640625 38.705078125 5.7294921875 42.8365478515625 C 2.0933837890625 51.4326171875 0.25 60.564208984375 0.25 69.9776611328125 L 0.25 2020.022338867188 C 0.25 2029.435791015625 2.0933837890625 2038.5673828125 5.7294921875 2047.163452148438 C 7.476806640625 2051.294921875 9.6400146484375 2055.280029296875 12.158203125 2059.007568359375 C 14.652587890625 2062.69970703125 17.517333984375 2066.171875 20.672607421875 2069.327392578125 C 23.82818603515625 2072.482666015625 27.30029296875 2075.347412109375 30.99237060546875 2077.841796875 C 34.719970703125 2080.360107421875 38.70501708984375 2082.523193359375 42.83660888671875 2084.2705078125 C 51.4326171875 2087.906494140625 60.564208984375 2089.75 69.9776611328125 2089.75 L 975.0223388671875 2089.75 C 984.435791015625 2089.75 993.5673828125 2087.906494140625 1002.163452148438 2084.2705078125 C 1006.294982910156 2082.523193359375 1010.280029296875 2080.360107421875 1014.007629394531 2077.841796875 C 1017.69970703125 2075.347412109375 1021.171813964844 2072.482666015625 1024.327392578125 2069.327392578125 C 1027.482666015625 2066.171875 1030.347412109375 2062.69970703125 1032.841796875 2059.007568359375 C 1035.359985351562 2055.280029296875 1037.523193359375 2051.294921875 1039.2705078125 2047.163452148438 C 1042.906616210938 2038.5673828125 1044.75 2029.435791015625 1044.75 2020.022338867188 L 1044.75 69.9776611328125 C 1044.75 60.564208984375 1042.906616210938 51.4326171875 1039.2705078125 42.8365478515625 C 1037.523193359375 38.705078125 1035.359985351562 34.719970703125 1032.841796875 30.992431640625 C 1030.347412109375 27.30029296875 1027.482666015625 23.828125 1024.327392578125 20.672607421875 C 1021.171813964844 17.517333984375 1017.69970703125 14.652587890625 1014.007629394531 12.158203125 C 1010.280029296875 9.639892578125 1006.294982910156 7.476806640625 1002.163452148438 5.7294921875 C 993.5673828125 2.093505859375 984.435791015625 0.25 975.0223388671875 0.25 L 69.9776611328125 0.25 M 69.9776611328125 0 L 975.0223388671875 0 C 1013.669982910156 0 1045 31.330078125 1045 69.9776611328125 L 1045 2020.022338867188 C 1045 2058.669921875 1013.669982910156 2090 975.0223388671875 2090 L 69.9776611328125 2090 C 31.33001708984375 2090 0 2058.669921875 0 2020.022338867188 L 0 69.9776611328125 C 0 31.330078125 31.33001708984375 0 69.9776611328125 0 Z"/>
      </g>
    </g>
    <g id="Work_Card" data-name="Work Card" transform="translate(971.703 508.574)">
      <g class="cls-52" transform="matrix(1, 0, 0, 1, -124.7, -333.57)">
        <path id="Path_4-3" data-name="Path 4" class="cls-2" d="M18.334,0h856.18c10.125,0,18.334,7.839,18.334,17.51v182.1c0,9.67-8.208,17.51-18.334,17.51H18.334C8.208,217.124,0,209.284,0,199.614V17.51C0,7.839,8.208,0,18.334,0Z" transform="translate(124.7 333.57)"/>
      </g>
      <g class="cls-51" transform="matrix(1, 0, 0, 1, -124.7, -333.57)">
        <text id="Work_Tasks-2" data-name="Work Tasks" class="cls-3" transform="translate(184.96 427.56)"><tspan x="0" y="0">Work Tasks</tspan></text>
      </g>
      <g class="cls-50" transform="matrix(1, 0, 0, 1, -124.7, -333.57)">
        <g id="Rectangle_4-3" data-name="Rectangle 4" class="cls-4" transform="translate(184.96 464.2)">
          <rect class="cls-17" width="41.987" height="41.987" rx="5"/>
          <rect class="cls-19" x="1" y="1" width="39.987" height="39.987" rx="4"/>
        </g>
      </g>
      <g class="cls-49" transform="matrix(1, 0, 0, 1, -124.7, -333.57)">
        <text id="_2_6_Completed-2" data-name="2/6 Completed" class="cls-5" transform="translate(247.94 496.2)"><tspan x="0" y="0">2/6 Completed</tspan></text>
      </g>
      <g class="cls-48" transform="matrix(1, 0, 0, 1, -124.7, -333.57)">
        <rect id="Incomp_Marker-3" data-name="Incomp Marker" class="cls-6" width="9.33" height="4.665" rx="1" transform="translate(201.28 482.86)"/>
      </g>
    </g>
    <g id="Groceries_Card" data-name="Groceries Card" transform="translate(971.703 772.156)">
      <g class="cls-47" transform="matrix(1, 0, 0, 1, -124.7, -597.16)">
        <path id="Path_5-4" data-name="Path 5" class="cls-7" d="M18.334,0h856.18c10.125,0,18.334,7.839,18.334,17.51v182.1c0,9.67-8.208,17.51-18.334,17.51H18.334C8.208,217.124,0,209.284,0,199.614V17.51C0,7.839,8.208,0,18.334,0Z" transform="translate(124.7 597.16)"/>
      </g>
      <g class="cls-46" transform="matrix(1, 0, 0, 1, -124.7, -597.16)">
        <g id="Check-Box-4" data-name="Check-Box" class="cls-4" transform="translate(184.96 725.45)">
          <rect class="cls-17" width="41.987" height="41.987" rx="5"/>
          <rect class="cls-19" x="1" y="1" width="39.987" height="39.987" rx="4"/>
        </g>
      </g>
      <g class="cls-45" transform="matrix(1, 0, 0, 1, -124.7, -597.16)">
        <text id="Completed_Count-4" data-name="Completed Count" class="cls-5" transform="translate(247.94 757.45)"><tspan x="0" y="0">4/5 Completed</tspan></text>
      </g>
      <g class="cls-44" transform="matrix(1, 0, 0, 1, -124.7, -597.16)">
        <path id="Body_3-3" data-name="Body 3" class="cls-6" d="M15.113,0h0A15.113,15.113,0,0,1,30.227,15.113v8.86a0,0,0,0,1,0,0H0a0,0,0,0,1,0,0v-8.86A15.113,15.113,0,0,1,15.113,0Z" transform="translate(873.07 740.04)"/>
      </g>
      <g class="cls-43" transform="matrix(1, 0, 0, 1, -124.7, -597.16)">
        <circle id="Head_2-3" data-name="Head 2" class="cls-6" cx="8.86" cy="8.86" r="8.86" transform="translate(879.32 725.45)"/>
      </g>
      <g class="cls-42" transform="matrix(1, 0, 0, 1, -124.7, -597.16)">
        <path id="Body_1-3" data-name="Body 1" class="cls-6" d="M15.113,0h0A15.113,15.113,0,0,1,30.227,15.113v8.86a0,0,0,0,1,0,0H0a0,0,0,0,1,0,0v-8.86A15.113,15.113,0,0,1,15.113,0Z" transform="translate(859.07 740.04)"/>
      </g>
      <g class="cls-41" transform="matrix(1, 0, 0, 1, -124.7, -597.16)">
        <circle id="Head_1-3" data-name="Head 1" class="cls-6" cx="8.86" cy="8.86" r="8.86" transform="translate(865.33 725.45)"/>
      </g>
      <g class="cls-40" transform="matrix(1, 0, 0, 1, -124.7, -597.16)">
        <text id="Share_Count-3" data-name="Share Count" class="cls-8" transform="translate(917.39 753.12)"><tspan x="0" y="0">2</tspan></text>
      </g>
      <g class="cls-39" transform="matrix(1, 0, 0, 1, -124.7, -597.16)">
        <rect id="Incomp_Marker-4" data-name="Incomp Marker" class="cls-6" width="9.33" height="4.665" rx="1" transform="translate(201.28 744.11)"/>
      </g>
      <g class="cls-38" transform="matrix(1, 0, 0, 1, -124.7, -597.16)">
        <text id="Title-4" data-name="Title" class="cls-3" transform="translate(184.96 688.81)"><tspan x="0" y="0">Groceries</tspan></text>
      </g>
    </g>
    <text id="To-Do" class="cls-9" transform="translate(971.308 409.636)"><tspan x="0" y="0">To-Do</tspan></text>
    <line id="Line_3" data-name="Line 3" class="cls-10" x2="928.371" transform="translate(951.481 1095.22)"/>
    <text id="Done" class="cls-9" transform="translate(971.308 1261.031)"><tspan x="0" y="0">Done</tspan></text>
    <g id="assignments-2" data-name="assignments" transform="translate(971.703 1355.304)">
      <g class="cls-37" transform="matrix(1, 0, 0, 1, -124.7, -1180.3)">
        <path id="Path_4-4" data-name="Path 4" class="cls-11" d="M18.334,0h856.18c10.125,0,18.334,7.839,18.334,17.51v182.1c0,9.67-8.208,17.51-18.334,17.51H18.334C8.208,217.124,0,209.284,0,199.614V17.51C0,7.839,8.208,0,18.334,0Z" transform="translate(124.7 1180.3)"/>
      </g>
      <g class="cls-36" transform="matrix(1, 0, 0, 1, -124.7, -1180.3)">
        <text id="Assignments-3" data-name="Assignments" class="cls-12" transform="translate(184.96 1274.29)"><tspan x="0" y="0">Assignments</tspan></text>
      </g>
      <g class="cls-35" transform="matrix(1, 0, 0, 1, -124.7, -1180.3)">
        <g id="Rectangle_4-4" data-name="Rectangle 4" class="cls-4" transform="translate(184.96 1310.93)">
          <rect class="cls-17" width="41.987" height="41.987" rx="5"/>
          <rect class="cls-19" x="1" y="1" width="39.987" height="39.987" rx="4"/>
        </g>
      </g>
      <g class="cls-34" transform="matrix(1, 0, 0, 1, -124.7, -1180.3)">
        <text id="_6_6_Completed-2" data-name="6/6 Completed" class="cls-13" transform="translate(247.94 1342.93)"><tspan x="0" y="0">6/6 Completed</tspan></text>
      </g>
      <rect id="Incomp_Marker-5" data-name="Incomp Marker" class="cls-6" width="9.33" height="4.665" rx="1" transform="translate(76.58 149.286)"/>
    </g>
    <g id="Workout" transform="translate(971.703 1618.886)">
      <g class="cls-33" transform="matrix(1, 0, 0, 1, -124.7, -1443.89)">
        <path id="Path_5-5" data-name="Path 5" class="cls-11" d="M18.334,0h856.18c10.125,0,18.334,7.839,18.334,17.51v182.1c0,9.67-8.208,17.51-18.334,17.51H18.334C8.208,217.124,0,209.284,0,199.614V17.51C0,7.839,8.208,0,18.334,0Z" transform="translate(124.7 1443.89)"/>
      </g>
      <g class="cls-32" transform="matrix(1, 0, 0, 1, -124.7, -1443.89)">
        <g id="Check-Box-5" data-name="Check-Box" class="cls-4" transform="translate(184.96 1572.18)">
          <rect class="cls-17" width="41.987" height="41.987" rx="5"/>
          <rect class="cls-19" x="1" y="1" width="39.987" height="39.987" rx="4"/>
        </g>
      </g>
      <g class="cls-31" transform="matrix(1, 0, 0, 1, -124.7, -1443.89)">
        <text id="Completed_Count-5" data-name="Completed Count" class="cls-13" transform="translate(247.94 1604.18)"><tspan x="0" y="0">13/13 Completed</tspan></text>
      </g>
      <g class="cls-30" transform="matrix(1, 0, 0, 1, -124.7, -1443.89)">
        <path id="Body_3-4" data-name="Body 3" class="cls-6" d="M15.113,0h0A15.113,15.113,0,0,1,30.227,15.113v8.86a0,0,0,0,1,0,0H0a0,0,0,0,1,0,0v-8.86A15.113,15.113,0,0,1,15.113,0Z" transform="translate(873.07 1586.77)"/>
      </g>
      <g class="cls-29" transform="matrix(1, 0, 0, 1, -124.7, -1443.89)">
        <circle id="Head_2-4" data-name="Head 2" class="cls-6" cx="8.86" cy="8.86" r="8.86" transform="translate(879.32 1572.18)"/>
      </g>
      <g class="cls-28" transform="matrix(1, 0, 0, 1, -124.7, -1443.89)">
        <path id="Body_1-4" data-name="Body 1" class="cls-6" d="M15.113,0h0A15.113,15.113,0,0,1,30.227,15.113v8.86a0,0,0,0,1,0,0H0a0,0,0,0,1,0,0v-8.86A15.113,15.113,0,0,1,15.113,0Z" transform="translate(859.07 1586.77)"/>
      </g>
      <g class="cls-27" transform="matrix(1, 0, 0, 1, -124.7, -1443.89)">
        <circle id="Head_1-4" data-name="Head 1" class="cls-6" cx="8.86" cy="8.86" r="8.86" transform="translate(865.33 1572.18)"/>
      </g>
      <g class="cls-26" transform="matrix(1, 0, 0, 1, -124.7, -1443.89)">
        <text id="Share_Count-4" data-name="Share Count" class="cls-8" transform="translate(917.39 1599.85)"><tspan x="0" y="0">4</tspan></text>
      </g>
      <rect id="Incomp_Marker-6" data-name="Incomp Marker" class="cls-6" width="9.33" height="4.665" rx="1" transform="translate(76.58 146.953)"/>
      <g class="cls-25" transform="matrix(1, 0, 0, 1, -124.7, -1443.89)">
        <text id="Title-5" data-name="Title" class="cls-12" transform="translate(184.96 1535.54)"><tspan x="0" y="0">Workout</tspan></text>
      </g>
    </g>
    <g id="Car_Fixes" data-name="Car Fixes" transform="translate(971.703 1882.469)">
      <g class="cls-24" transform="matrix(1, 0, 0, 1, -124.7, -1707.47)">
        <path id="Path_5-6" data-name="Path 5" class="cls-11" d="M18.334,0h856.18c10.125,0,18.334,7.839,18.334,17.51v182.1c0,9.67-8.208,17.51-18.334,17.51H18.334C8.208,217.124,0,209.284,0,199.614V17.51C0,7.839,8.208,0,18.334,0Z" transform="translate(124.7 1707.47)"/>
      </g>
      <g class="cls-23" transform="matrix(1, 0, 0, 1, -124.7, -1707.47)">
        <g id="Check-Box-6" data-name="Check-Box" class="cls-4" transform="translate(184.96 1835.76)">
          <rect class="cls-17" width="41.987" height="41.987" rx="5"/>
          <rect class="cls-19" x="1" y="1" width="39.987" height="39.987" rx="4"/>
        </g>
      </g>
      <g class="cls-22" transform="matrix(1, 0, 0, 1, -124.7, -1707.47)">
        <text id="Completed_Count-6" data-name="Completed Count" class="cls-13" transform="translate(247.94 1867.76)"><tspan x="0" y="0">3/3 Completed</tspan></text>
      </g>
      <rect id="Incomp_Marker-7" data-name="Incomp Marker" class="cls-6" width="9.33" height="4.665" rx="1" transform="translate(76.58 146.953)"/>
      <g class="cls-21" transform="matrix(1, 0, 0, 1, -124.7, -1707.47)">
        <text id="Title-6" data-name="Title" class="cls-14" transform="translate(184.96 1798.12)"><tspan x="0" y="0">Car Fixes</tspan></text>
      </g>
    </g>
    <g class="cls-20" transform="matrix(1, 0, 0, 1, 847, 175)">
      <path id="Path_6-2" data-name="Path 6" class="cls-15" d="M100.3,0A100.3,100.3,0,1,1,0,100.3,100.3,100.3,0,0,1,100.3,0Z" transform="translate(467.2 1866.08)"/>
    </g>
    <text id="_" data-name="+" class="cls-16" transform="translate(1384.176 2166.408)"><tspan x="0" y="0">+</tspan></text>
  </g>
</svg>
